<mxfile host="app.diagrams.net" modified="2023-06-27T15:35:00.640Z" agent="Mozilla/5.0 (Windows NT 10.0; Win64; x64) AppleWebKit/537.36 (KHTML, like Gecko) Chrome/114.0.0.0 Safari/537.36" etag="cX0jcw_8t38Sdd_nh-aS" version="21.5.1" type="github">
  <diagram name="Page-1" id="D8w3A1c4NBQzabuCHDF7">
    <mxGraphModel dx="1216" dy="1704" grid="1" gridSize="10" guides="1" tooltips="1" connect="1" arrows="1" fold="1" page="1" pageScale="1" pageWidth="850" pageHeight="1100" math="0" shadow="0">
      <root>
        <mxCell id="0" />
        <mxCell id="1" parent="0" />
        <mxCell id="LEf2-nqMguErEL3u1rOa-1" value="" style="edgeStyle=orthogonalEdgeStyle;rounded=0;orthogonalLoop=1;jettySize=auto;html=1;" parent="1" source="LEf2-nqMguErEL3u1rOa-2" target="LEf2-nqMguErEL3u1rOa-5" edge="1">
          <mxGeometry relative="1" as="geometry" />
        </mxCell>
        <mxCell id="LEf2-nqMguErEL3u1rOa-2" value="Actor" style="shape=umlActor;verticalLabelPosition=bottom;verticalAlign=top;html=1;outlineConnect=0;" parent="1" vertex="1">
          <mxGeometry x="220" y="490" width="30" height="60" as="geometry" />
        </mxCell>
        <mxCell id="LEf2-nqMguErEL3u1rOa-3" style="edgeStyle=orthogonalEdgeStyle;rounded=0;orthogonalLoop=1;jettySize=auto;html=1;exitX=1;exitY=0.5;exitDx=0;exitDy=0;entryX=0;entryY=0.5;entryDx=0;entryDy=0;" parent="1" source="LEf2-nqMguErEL3u1rOa-5" target="LEf2-nqMguErEL3u1rOa-7" edge="1">
          <mxGeometry relative="1" as="geometry" />
        </mxCell>
        <mxCell id="LEf2-nqMguErEL3u1rOa-4" value="" style="edgeStyle=orthogonalEdgeStyle;rounded=0;orthogonalLoop=1;jettySize=auto;html=1;" parent="1" source="LEf2-nqMguErEL3u1rOa-5" target="LEf2-nqMguErEL3u1rOa-27" edge="1">
          <mxGeometry relative="1" as="geometry" />
        </mxCell>
        <mxCell id="LEf2-nqMguErEL3u1rOa-5" value="web" style="rounded=0;whiteSpace=wrap;html=1;" parent="1" vertex="1">
          <mxGeometry x="482.5" y="490" width="120" height="60" as="geometry" />
        </mxCell>
        <mxCell id="LEf2-nqMguErEL3u1rOa-6" style="edgeStyle=orthogonalEdgeStyle;rounded=0;orthogonalLoop=1;jettySize=auto;html=1;entryX=0.5;entryY=0;entryDx=0;entryDy=0;" parent="1" source="LEf2-nqMguErEL3u1rOa-7" target="LEf2-nqMguErEL3u1rOa-13" edge="1">
          <mxGeometry relative="1" as="geometry" />
        </mxCell>
        <mxCell id="LEf2-nqMguErEL3u1rOa-7" value="back" style="rounded=0;whiteSpace=wrap;html=1;" parent="1" vertex="1">
          <mxGeometry x="780" y="490" width="120" height="60" as="geometry" />
        </mxCell>
        <mxCell id="LEf2-nqMguErEL3u1rOa-8" value="" style="edgeStyle=orthogonalEdgeStyle;rounded=0;orthogonalLoop=1;jettySize=auto;html=1;" parent="1" source="LEf2-nqMguErEL3u1rOa-9" target="LEf2-nqMguErEL3u1rOa-19" edge="1">
          <mxGeometry relative="1" as="geometry" />
        </mxCell>
        <mxCell id="LEf2-nqMguErEL3u1rOa-9" value="database" style="shape=cylinder3;whiteSpace=wrap;html=1;boundedLbl=1;backgroundOutline=1;size=15;" parent="1" vertex="1">
          <mxGeometry x="1320" y="480" width="60" height="80" as="geometry" />
        </mxCell>
        <mxCell id="LEf2-nqMguErEL3u1rOa-10" value="" style="endArrow=classic;startArrow=classic;html=1;rounded=0;exitX=1;exitY=0.5;exitDx=0;exitDy=0;entryX=0;entryY=0.5;entryDx=0;entryDy=0;entryPerimeter=0;" parent="1" source="LEf2-nqMguErEL3u1rOa-7" target="LEf2-nqMguErEL3u1rOa-9" edge="1">
          <mxGeometry width="50" height="50" relative="1" as="geometry">
            <mxPoint x="750" y="540" as="sourcePoint" />
            <mxPoint x="800" y="490" as="targetPoint" />
          </mxGeometry>
        </mxCell>
        <mxCell id="LEf2-nqMguErEL3u1rOa-11" style="edgeStyle=orthogonalEdgeStyle;rounded=0;orthogonalLoop=1;jettySize=auto;html=1;entryX=-0.004;entryY=0.564;entryDx=0;entryDy=0;entryPerimeter=0;" parent="1" source="LEf2-nqMguErEL3u1rOa-13" target="LEf2-nqMguErEL3u1rOa-24" edge="1">
          <mxGeometry relative="1" as="geometry" />
        </mxCell>
        <mxCell id="LEf2-nqMguErEL3u1rOa-12" style="edgeStyle=orthogonalEdgeStyle;rounded=0;orthogonalLoop=1;jettySize=auto;html=1;entryX=0;entryY=0.5;entryDx=0;entryDy=0;" parent="1" source="LEf2-nqMguErEL3u1rOa-13" target="LEf2-nqMguErEL3u1rOa-25" edge="1">
          <mxGeometry relative="1" as="geometry" />
        </mxCell>
        <mxCell id="LEf2-nqMguErEL3u1rOa-13" value="&lt;h1&gt;Back&lt;/h1&gt;&lt;div&gt;- Chọn phòng&lt;/div&gt;&lt;div&gt;- Thông báo&lt;/div&gt;" style="text;html=1;strokeColor=none;fillColor=none;spacing=5;spacingTop=-20;whiteSpace=wrap;overflow=hidden;rounded=0;" parent="1" vertex="1">
          <mxGeometry x="800" y="701" width="80" height="120" as="geometry" />
        </mxCell>
        <mxCell id="LEf2-nqMguErEL3u1rOa-14" style="edgeStyle=orthogonalEdgeStyle;rounded=0;orthogonalLoop=1;jettySize=auto;html=1;" parent="1" source="LEf2-nqMguErEL3u1rOa-19" target="LEf2-nqMguErEL3u1rOa-20" edge="1">
          <mxGeometry relative="1" as="geometry" />
        </mxCell>
        <mxCell id="LEf2-nqMguErEL3u1rOa-15" style="edgeStyle=orthogonalEdgeStyle;rounded=0;orthogonalLoop=1;jettySize=auto;html=1;entryX=0.007;entryY=0.433;entryDx=0;entryDy=0;entryPerimeter=0;" parent="1" source="LEf2-nqMguErEL3u1rOa-19" target="LEf2-nqMguErEL3u1rOa-21" edge="1">
          <mxGeometry relative="1" as="geometry" />
        </mxCell>
        <mxCell id="LEf2-nqMguErEL3u1rOa-16" style="edgeStyle=orthogonalEdgeStyle;rounded=0;orthogonalLoop=1;jettySize=auto;html=1;" parent="1" source="LEf2-nqMguErEL3u1rOa-19" target="LEf2-nqMguErEL3u1rOa-22" edge="1">
          <mxGeometry relative="1" as="geometry" />
        </mxCell>
        <mxCell id="LEf2-nqMguErEL3u1rOa-17" style="edgeStyle=orthogonalEdgeStyle;rounded=0;orthogonalLoop=1;jettySize=auto;html=1;entryX=0;entryY=0.5;entryDx=0;entryDy=0;" parent="1" source="LEf2-nqMguErEL3u1rOa-19" target="LEf2-nqMguErEL3u1rOa-23" edge="1">
          <mxGeometry relative="1" as="geometry" />
        </mxCell>
        <mxCell id="LEf2-nqMguErEL3u1rOa-18" style="edgeStyle=orthogonalEdgeStyle;rounded=0;orthogonalLoop=1;jettySize=auto;html=1;entryX=0;entryY=0.5;entryDx=0;entryDy=0;" parent="1" source="LEf2-nqMguErEL3u1rOa-19" target="LEf2-nqMguErEL3u1rOa-26" edge="1">
          <mxGeometry relative="1" as="geometry" />
        </mxCell>
        <mxCell id="LEf2-nqMguErEL3u1rOa-19" value="&lt;h1&gt;Thông tin đặt phòng&lt;/h1&gt;&lt;div&gt;- Phòng học&lt;/div&gt;&lt;div&gt;- Thời gian&amp;nbsp;&lt;/div&gt;&lt;div&gt;- Người book&lt;/div&gt;&lt;div&gt;- &lt;font color=&quot;#ffffcc&quot;&gt;Người duyệt&lt;/font&gt;&lt;/div&gt;&lt;div&gt;- Content&amp;nbsp;&lt;/div&gt;" style="text;html=1;strokeColor=none;fillColor=none;spacing=5;spacingTop=-20;whiteSpace=wrap;overflow=hidden;rounded=0;" parent="1" vertex="1">
          <mxGeometry x="1440" y="672" width="130" height="178" as="geometry" />
        </mxCell>
        <mxCell id="LEf2-nqMguErEL3u1rOa-20" value="&lt;h1&gt;Phòng học&lt;/h1&gt;&lt;div&gt;- Số phòng&lt;/div&gt;&lt;div&gt;- Địa điểm&lt;/div&gt;&lt;div&gt;- Trạng thái&lt;/div&gt;&lt;div&gt;&lt;br&gt;&lt;/div&gt;" style="text;html=1;strokeColor=none;fillColor=none;spacing=5;spacingTop=-20;whiteSpace=wrap;overflow=hidden;rounded=0;" parent="1" vertex="1">
          <mxGeometry x="1680" y="570" width="190" height="120" as="geometry" />
        </mxCell>
        <mxCell id="LEf2-nqMguErEL3u1rOa-21" value="&lt;h1&gt;Thời gian&amp;nbsp;&lt;/h1&gt;&lt;div&gt;- Ngày&lt;/div&gt;&lt;div&gt;- Giờ&lt;/div&gt;&lt;div&gt;- Trạng thái&lt;/div&gt;" style="text;html=1;strokeColor=none;fillColor=none;spacing=5;spacingTop=-20;whiteSpace=wrap;overflow=hidden;rounded=0;" parent="1" vertex="1">
          <mxGeometry x="1680" y="710" width="190" height="120" as="geometry" />
        </mxCell>
        <mxCell id="LEf2-nqMguErEL3u1rOa-22" value="&lt;h1&gt;Người book&lt;/h1&gt;&lt;div&gt;- Tên người đặt&lt;/div&gt;&lt;div&gt;- Tên CLB&lt;/div&gt;&lt;div&gt;- Mssv&lt;/div&gt;&lt;div&gt;- SĐT&lt;/div&gt;&lt;div&gt;- Email&lt;/div&gt;" style="text;html=1;strokeColor=none;fillColor=none;spacing=5;spacingTop=-20;whiteSpace=wrap;overflow=hidden;rounded=0;" parent="1" vertex="1">
          <mxGeometry x="1680" y="840" width="180" height="120" as="geometry" />
        </mxCell>
        <mxCell id="LEf2-nqMguErEL3u1rOa-23" value="&lt;h1&gt;Người duyệt&lt;/h1&gt;&lt;div&gt;- Tên người duyệt&lt;/div&gt;&lt;div&gt;- SĐT&lt;/div&gt;&lt;div&gt;- Email&lt;/div&gt;" style="text;html=1;strokeColor=none;fillColor=none;spacing=5;spacingTop=-20;whiteSpace=wrap;overflow=hidden;rounded=0;" parent="1" vertex="1">
          <mxGeometry x="1680" y="990" width="190" height="120" as="geometry" />
        </mxCell>
        <mxCell id="LEf2-nqMguErEL3u1rOa-24" value="&lt;h1&gt;Chọn phòng&lt;/h1&gt;&lt;div&gt;- Thêm phòng&lt;/div&gt;&lt;div&gt;- Sửa&lt;/div&gt;&lt;div&gt;- Xóa&lt;/div&gt;" style="text;html=1;strokeColor=none;fillColor=none;spacing=5;spacingTop=-20;whiteSpace=wrap;overflow=hidden;rounded=0;" parent="1" vertex="1">
          <mxGeometry x="960" y="610" width="190" height="120" as="geometry" />
        </mxCell>
        <mxCell id="LEf2-nqMguErEL3u1rOa-25" value="&lt;h1&gt;Thông báo&lt;/h1&gt;&lt;div&gt;- Đến:&lt;/div&gt;&lt;div&gt;&lt;span style=&quot;white-space: pre;&quot;&gt;&#x9;&lt;/span&gt;+) Người duyệt&lt;br&gt;&lt;/div&gt;&lt;div&gt;&lt;span style=&quot;white-space: pre;&quot;&gt;&#x9;&lt;/span&gt;+) Người đặt&lt;br&gt;&lt;/div&gt;&lt;div&gt;- ĐI:&lt;/div&gt;&lt;div&gt;&lt;span style=&quot;white-space: pre;&quot;&gt;&#x9;&lt;/span&gt;+) Người duyệt&lt;br&gt;&lt;/div&gt;&lt;div&gt;&lt;span style=&quot;white-space: pre;&quot;&gt;&#x9;&lt;/span&gt;+) Người đặt&lt;br&gt;&lt;/div&gt;" style="text;html=1;strokeColor=none;fillColor=none;spacing=5;spacingTop=-20;whiteSpace=wrap;overflow=hidden;rounded=0;" parent="1" vertex="1">
          <mxGeometry x="960" y="760" width="190" height="160" as="geometry" />
        </mxCell>
        <mxCell id="LEf2-nqMguErEL3u1rOa-26" value="&lt;h1&gt;Content&lt;/h1&gt;&lt;div&gt;- Người book/ duyệt&lt;/div&gt;&lt;div&gt;- Content&lt;/div&gt;" style="text;html=1;strokeColor=none;fillColor=none;spacing=5;spacingTop=-20;whiteSpace=wrap;overflow=hidden;rounded=0;" parent="1" vertex="1">
          <mxGeometry x="1680" y="1130" width="170" height="100" as="geometry" />
        </mxCell>
        <mxCell id="LEf2-nqMguErEL3u1rOa-27" value="&lt;h1&gt;Web&lt;/h1&gt;&lt;div&gt;- Login/ logout/ sign up&lt;/div&gt;" style="text;html=1;strokeColor=none;fillColor=none;spacing=5;spacingTop=-20;whiteSpace=wrap;overflow=hidden;rounded=0;" parent="1" vertex="1">
          <mxGeometry x="460" y="610" width="165" height="100" as="geometry" />
        </mxCell>
        <mxCell id="LEf2-nqMguErEL3u1rOa-28" value="" style="edgeStyle=orthogonalEdgeStyle;rounded=0;orthogonalLoop=1;jettySize=auto;html=1;" parent="1" source="LEf2-nqMguErEL3u1rOa-29" target="LEf2-nqMguErEL3u1rOa-31" edge="1">
          <mxGeometry relative="1" as="geometry" />
        </mxCell>
        <mxCell id="LEf2-nqMguErEL3u1rOa-29" value="User" style="shape=umlActor;verticalLabelPosition=bottom;verticalAlign=top;html=1;outlineConnect=0;" parent="1" vertex="1">
          <mxGeometry x="1235" y="1300" width="30" height="60" as="geometry" />
        </mxCell>
        <mxCell id="LEf2-nqMguErEL3u1rOa-30" value="" style="edgeStyle=orthogonalEdgeStyle;rounded=0;orthogonalLoop=1;jettySize=auto;html=1;" parent="1" source="LEf2-nqMguErEL3u1rOa-31" target="LEf2-nqMguErEL3u1rOa-33" edge="1">
          <mxGeometry relative="1" as="geometry" />
        </mxCell>
        <mxCell id="LEf2-nqMguErEL3u1rOa-31" value="đăng nhập" style="rounded=0;whiteSpace=wrap;html=1;" parent="1" vertex="1">
          <mxGeometry x="1190" y="1430" width="120" height="60" as="geometry" />
        </mxCell>
        <mxCell id="LEf2-nqMguErEL3u1rOa-32" value="" style="edgeStyle=orthogonalEdgeStyle;rounded=0;orthogonalLoop=1;jettySize=auto;html=1;" parent="1" source="LEf2-nqMguErEL3u1rOa-33" target="LEf2-nqMguErEL3u1rOa-36" edge="1">
          <mxGeometry relative="1" as="geometry" />
        </mxCell>
        <mxCell id="LEf2-nqMguErEL3u1rOa-33" value="chọn ngày&amp;nbsp;" style="rounded=0;whiteSpace=wrap;html=1;" parent="1" vertex="1">
          <mxGeometry x="1190" y="1540" width="120" height="60" as="geometry" />
        </mxCell>
        <mxCell id="LEf2-nqMguErEL3u1rOa-34" style="edgeStyle=orthogonalEdgeStyle;rounded=0;orthogonalLoop=1;jettySize=auto;html=1;entryX=1;entryY=0.5;entryDx=0;entryDy=0;" parent="1" source="LEf2-nqMguErEL3u1rOa-36" target="LEf2-nqMguErEL3u1rOa-33" edge="1">
          <mxGeometry relative="1" as="geometry">
            <Array as="points">
              <mxPoint x="1330" y="1680" />
              <mxPoint x="1330" y="1570" />
            </Array>
          </mxGeometry>
        </mxCell>
        <mxCell id="LEf2-nqMguErEL3u1rOa-35" value="" style="edgeStyle=orthogonalEdgeStyle;rounded=0;orthogonalLoop=1;jettySize=auto;html=1;" parent="1" source="LEf2-nqMguErEL3u1rOa-36" target="LEf2-nqMguErEL3u1rOa-40" edge="1">
          <mxGeometry relative="1" as="geometry" />
        </mxCell>
        <mxCell id="LEf2-nqMguErEL3u1rOa-36" value="check phòng / địa điểm" style="rounded=0;whiteSpace=wrap;html=1;" parent="1" vertex="1">
          <mxGeometry x="1190" y="1650" width="120" height="60" as="geometry" />
        </mxCell>
        <mxCell id="LEf2-nqMguErEL3u1rOa-37" style="edgeStyle=orthogonalEdgeStyle;rounded=0;orthogonalLoop=1;jettySize=auto;html=1;entryX=0.5;entryY=0;entryDx=0;entryDy=0;" parent="1" source="LEf2-nqMguErEL3u1rOa-40" target="LEf2-nqMguErEL3u1rOa-42" edge="1">
          <mxGeometry relative="1" as="geometry" />
        </mxCell>
        <mxCell id="LEf2-nqMguErEL3u1rOa-38" style="edgeStyle=orthogonalEdgeStyle;rounded=0;orthogonalLoop=1;jettySize=auto;html=1;entryX=0;entryY=0.5;entryDx=0;entryDy=0;" parent="1" source="LEf2-nqMguErEL3u1rOa-40" target="LEf2-nqMguErEL3u1rOa-46" edge="1">
          <mxGeometry relative="1" as="geometry" />
        </mxCell>
        <mxCell id="LEf2-nqMguErEL3u1rOa-39" style="edgeStyle=orthogonalEdgeStyle;rounded=0;orthogonalLoop=1;jettySize=auto;html=1;entryX=0;entryY=0.5;entryDx=0;entryDy=0;" parent="1" source="LEf2-nqMguErEL3u1rOa-40" target="LEf2-nqMguErEL3u1rOa-44" edge="1">
          <mxGeometry relative="1" as="geometry" />
        </mxCell>
        <mxCell id="LEf2-nqMguErEL3u1rOa-40" value="chọn&amp;nbsp;" style="rounded=0;whiteSpace=wrap;html=1;" parent="1" vertex="1">
          <mxGeometry x="1190" y="1780" width="120" height="60" as="geometry" />
        </mxCell>
        <mxCell id="LEf2-nqMguErEL3u1rOa-41" value="" style="edgeStyle=orthogonalEdgeStyle;rounded=0;orthogonalLoop=1;jettySize=auto;html=1;" parent="1" source="LEf2-nqMguErEL3u1rOa-42" target="LEf2-nqMguErEL3u1rOa-51" edge="1">
          <mxGeometry relative="1" as="geometry" />
        </mxCell>
        <mxCell id="LEf2-nqMguErEL3u1rOa-42" value="Gửi yêu cầu" style="rounded=0;whiteSpace=wrap;html=1;" parent="1" vertex="1">
          <mxGeometry x="1190" y="2030" width="120" height="60" as="geometry" />
        </mxCell>
        <mxCell id="LEf2-nqMguErEL3u1rOa-43" style="edgeStyle=orthogonalEdgeStyle;rounded=0;orthogonalLoop=1;jettySize=auto;html=1;" parent="1" source="LEf2-nqMguErEL3u1rOa-44" edge="1">
          <mxGeometry relative="1" as="geometry">
            <mxPoint x="1630" y="1940" as="targetPoint" />
          </mxGeometry>
        </mxCell>
        <mxCell id="LEf2-nqMguErEL3u1rOa-44" value="hủy" style="rounded=0;whiteSpace=wrap;html=1;" parent="1" vertex="1">
          <mxGeometry x="1440" y="1910" width="120" height="60" as="geometry" />
        </mxCell>
        <mxCell id="LEf2-nqMguErEL3u1rOa-45" style="edgeStyle=orthogonalEdgeStyle;rounded=0;orthogonalLoop=1;jettySize=auto;html=1;entryX=1;entryY=0.5;entryDx=0;entryDy=0;" parent="1" source="LEf2-nqMguErEL3u1rOa-46" target="LEf2-nqMguErEL3u1rOa-42" edge="1">
          <mxGeometry relative="1" as="geometry">
            <Array as="points">
              <mxPoint x="1630" y="1810" />
              <mxPoint x="1630" y="2060" />
            </Array>
          </mxGeometry>
        </mxCell>
        <mxCell id="LEf2-nqMguErEL3u1rOa-46" value="Thay đổi" style="rounded=0;whiteSpace=wrap;html=1;" parent="1" vertex="1">
          <mxGeometry x="1440" y="1780" width="120" height="60" as="geometry" />
        </mxCell>
        <mxCell id="LEf2-nqMguErEL3u1rOa-47" value="False" style="text;html=1;strokeColor=none;fillColor=none;align=center;verticalAlign=middle;whiteSpace=wrap;rounded=0;" parent="1" vertex="1">
          <mxGeometry x="1340" y="1610" width="60" height="30" as="geometry" />
        </mxCell>
        <mxCell id="LEf2-nqMguErEL3u1rOa-48" value="True" style="text;html=1;strokeColor=none;fillColor=none;align=center;verticalAlign=middle;whiteSpace=wrap;rounded=0;" parent="1" vertex="1">
          <mxGeometry x="1250" y="1730" width="60" height="30" as="geometry" />
        </mxCell>
        <mxCell id="LEf2-nqMguErEL3u1rOa-49" value="" style="edgeStyle=orthogonalEdgeStyle;rounded=0;orthogonalLoop=1;jettySize=auto;html=1;" parent="1" source="LEf2-nqMguErEL3u1rOa-51" edge="1">
          <mxGeometry relative="1" as="geometry">
            <mxPoint x="1100" y="2180" as="targetPoint" />
          </mxGeometry>
        </mxCell>
        <mxCell id="LEf2-nqMguErEL3u1rOa-50" style="edgeStyle=orthogonalEdgeStyle;rounded=0;orthogonalLoop=1;jettySize=auto;html=1;" parent="1" source="LEf2-nqMguErEL3u1rOa-51" target="LEf2-nqMguErEL3u1rOa-55" edge="1">
          <mxGeometry relative="1" as="geometry" />
        </mxCell>
        <mxCell id="LEf2-nqMguErEL3u1rOa-51" value="Người duyệt" style="rounded=0;whiteSpace=wrap;html=1;" parent="1" vertex="1">
          <mxGeometry x="1190" y="2150" width="120" height="60" as="geometry" />
        </mxCell>
        <mxCell id="LEf2-nqMguErEL3u1rOa-52" value="Đồng ý" style="text;html=1;strokeColor=none;fillColor=none;align=center;verticalAlign=middle;whiteSpace=wrap;rounded=0;" parent="1" vertex="1">
          <mxGeometry x="1330" y="2150" width="60" height="30" as="geometry" />
        </mxCell>
        <mxCell id="LEf2-nqMguErEL3u1rOa-53" value="Từ chối" style="text;html=1;strokeColor=none;fillColor=none;align=center;verticalAlign=middle;whiteSpace=wrap;rounded=0;" parent="1" vertex="1">
          <mxGeometry x="1120" y="2150" width="60" height="30" as="geometry" />
        </mxCell>
        <mxCell id="LEf2-nqMguErEL3u1rOa-54" value="" style="edgeStyle=orthogonalEdgeStyle;rounded=0;orthogonalLoop=1;jettySize=auto;html=1;" parent="1" source="LEf2-nqMguErEL3u1rOa-55" target="LEf2-nqMguErEL3u1rOa-56" edge="1">
          <mxGeometry relative="1" as="geometry" />
        </mxCell>
        <mxCell id="LEf2-nqMguErEL3u1rOa-55" value="mail xác nhận" style="rounded=0;whiteSpace=wrap;html=1;" parent="1" vertex="1">
          <mxGeometry x="1440" y="2150" width="120" height="60" as="geometry" />
        </mxCell>
        <mxCell id="LEf2-nqMguErEL3u1rOa-56" value="User" style="shape=umlActor;verticalLabelPosition=bottom;verticalAlign=top;html=1;outlineConnect=0;" parent="1" vertex="1">
          <mxGeometry x="1660" y="2150" width="30" height="60" as="geometry" />
        </mxCell>
        <mxCell id="LEf2-nqMguErEL3u1rOa-57" value="" style="edgeStyle=orthogonalEdgeStyle;rounded=0;orthogonalLoop=1;jettySize=auto;html=1;" parent="1" source="LEf2-nqMguErEL3u1rOa-58" target="LEf2-nqMguErEL3u1rOa-59" edge="1">
          <mxGeometry relative="1" as="geometry" />
        </mxCell>
        <mxCell id="LEf2-nqMguErEL3u1rOa-58" value="mail" style="rounded=0;whiteSpace=wrap;html=1;" parent="1" vertex="1">
          <mxGeometry x="980" y="2150" width="120" height="60" as="geometry" />
        </mxCell>
        <mxCell id="LEf2-nqMguErEL3u1rOa-59" value="User" style="shape=umlActor;verticalLabelPosition=bottom;verticalAlign=top;html=1;outlineConnect=0;" parent="1" vertex="1">
          <mxGeometry x="860" y="2150" width="30" height="60" as="geometry" />
        </mxCell>
        <mxCell id="ioqxV5oBWN_LTfzM5Hr--37" value="" style="whiteSpace=wrap;html=1;aspect=fixed;" vertex="1" parent="1">
          <mxGeometry x="1980" y="-250" width="1430" height="1430" as="geometry" />
        </mxCell>
        <mxCell id="ioqxV5oBWN_LTfzM5Hr--3" style="edgeStyle=orthogonalEdgeStyle;rounded=0;orthogonalLoop=1;jettySize=auto;html=1;entryX=0.5;entryY=0;entryDx=0;entryDy=0;" edge="1" parent="1" source="LEf2-nqMguErEL3u1rOa-60" target="LEf2-nqMguErEL3u1rOa-72">
          <mxGeometry relative="1" as="geometry" />
        </mxCell>
        <mxCell id="LEf2-nqMguErEL3u1rOa-62" value="Phòng học" style="swimlane;whiteSpace=wrap;html=1;" parent="1" vertex="1">
          <mxGeometry x="3150" y="920" width="200" height="150" as="geometry" />
        </mxCell>
        <mxCell id="LEf2-nqMguErEL3u1rOa-63" value="&lt;font style=&quot;font-size: 14px;&quot;&gt;- Địa Điểm&lt;br&gt;- Số phòng&lt;br&gt;- Trạng Thái&lt;br&gt;&lt;/font&gt;" style="text;html=1;align=center;verticalAlign=middle;resizable=0;points=[];autosize=1;strokeColor=none;fillColor=none;" parent="LEf2-nqMguErEL3u1rOa-62" vertex="1">
          <mxGeometry x="50" y="45" width="100" height="60" as="geometry" />
        </mxCell>
        <mxCell id="LEf2-nqMguErEL3u1rOa-60" value="Năm" style="swimlane;whiteSpace=wrap;html=1;" parent="1" vertex="1">
          <mxGeometry x="3160" y="190" width="180" height="120" as="geometry" />
        </mxCell>
        <mxCell id="LEf2-nqMguErEL3u1rOa-61" value="- Năm&lt;br&gt;- Tháng" style="text;html=1;align=center;verticalAlign=middle;resizable=0;points=[];autosize=1;strokeColor=none;fillColor=none;" parent="LEf2-nqMguErEL3u1rOa-60" vertex="1">
          <mxGeometry x="55" y="45" width="60" height="40" as="geometry" />
        </mxCell>
        <mxCell id="ioqxV5oBWN_LTfzM5Hr--31" style="edgeStyle=none;rounded=0;orthogonalLoop=1;jettySize=auto;html=1;entryX=1;entryY=0.5;entryDx=0;entryDy=0;" edge="1" parent="1" source="LEf2-nqMguErEL3u1rOa-62" target="LEf2-nqMguErEL3u1rOa-78">
          <mxGeometry relative="1" as="geometry" />
        </mxCell>
        <mxCell id="LEf2-nqMguErEL3u1rOa-64" value="Người đặt" style="swimlane;whiteSpace=wrap;html=1;" parent="1" vertex="1">
          <mxGeometry x="2220" y="370" width="200" height="150" as="geometry" />
        </mxCell>
        <mxCell id="LEf2-nqMguErEL3u1rOa-65" value="- MSSV&lt;br&gt;- Tên&lt;br&gt;- Đơn vị&lt;br&gt;- SĐT&lt;br&gt;- Email" style="text;html=1;align=center;verticalAlign=middle;resizable=0;points=[];autosize=1;strokeColor=none;fillColor=none;" parent="LEf2-nqMguErEL3u1rOa-64" vertex="1">
          <mxGeometry x="60" y="40" width="70" height="90" as="geometry" />
        </mxCell>
        <mxCell id="LEf2-nqMguErEL3u1rOa-66" value="Người duyệt" style="swimlane;whiteSpace=wrap;html=1;" parent="1" vertex="1">
          <mxGeometry x="2220" y="730" width="200" height="130" as="geometry" />
        </mxCell>
        <mxCell id="LEf2-nqMguErEL3u1rOa-67" value="- Tên&lt;br&gt;- SĐT&lt;br&gt;- Email" style="text;html=1;align=center;verticalAlign=middle;resizable=0;points=[];autosize=1;strokeColor=none;fillColor=none;" parent="LEf2-nqMguErEL3u1rOa-66" vertex="1">
          <mxGeometry x="70" y="40" width="60" height="60" as="geometry" />
        </mxCell>
        <mxCell id="LEf2-nqMguErEL3u1rOa-68" value="Content" style="swimlane;whiteSpace=wrap;html=1;" parent="1" vertex="1">
          <mxGeometry x="2220" y="572.5" width="200" height="115" as="geometry" />
        </mxCell>
        <mxCell id="LEf2-nqMguErEL3u1rOa-69" value="- Booking ID&lt;br&gt;- Content người book&lt;br&gt;- Content người duyệt" style="text;html=1;align=center;verticalAlign=middle;resizable=0;points=[];autosize=1;strokeColor=none;fillColor=none;" parent="LEf2-nqMguErEL3u1rOa-68" vertex="1">
          <mxGeometry x="25" y="38" width="140" height="60" as="geometry" />
        </mxCell>
        <mxCell id="ioqxV5oBWN_LTfzM5Hr--6" style="edgeStyle=orthogonalEdgeStyle;rounded=0;orthogonalLoop=1;jettySize=auto;html=1;entryX=0;entryY=0.5;entryDx=0;entryDy=0;" edge="1" parent="1" source="LEf2-nqMguErEL3u1rOa-70" target="LEf2-nqMguErEL3u1rOa-60">
          <mxGeometry relative="1" as="geometry">
            <mxPoint x="2825" y="420" as="targetPoint" />
          </mxGeometry>
        </mxCell>
        <mxCell id="LEf2-nqMguErEL3u1rOa-70" value="Booking Information" style="swimlane;whiteSpace=wrap;html=1;" parent="1" vertex="1">
          <mxGeometry x="2560" y="160" width="180" height="180" as="geometry" />
        </mxCell>
        <mxCell id="LEf2-nqMguErEL3u1rOa-71" value="- Booking ID&lt;br&gt;- MSSV&lt;br&gt;- Đơn vị&lt;br&gt;- Phòng học&lt;br&gt;- Địa điểm&lt;br&gt;- Thời gian đặt&lt;br&gt;- Thời gian chọn&lt;br&gt;- Người duyệt" style="text;html=1;align=center;verticalAlign=middle;resizable=0;points=[];autosize=1;strokeColor=none;fillColor=none;" parent="LEf2-nqMguErEL3u1rOa-70" vertex="1">
          <mxGeometry x="35" y="35" width="110" height="130" as="geometry" />
        </mxCell>
        <mxCell id="ioqxV5oBWN_LTfzM5Hr--4" style="edgeStyle=orthogonalEdgeStyle;rounded=0;orthogonalLoop=1;jettySize=auto;html=1;entryX=0.5;entryY=0;entryDx=0;entryDy=0;" edge="1" parent="1" source="LEf2-nqMguErEL3u1rOa-72" target="LEf2-nqMguErEL3u1rOa-74">
          <mxGeometry relative="1" as="geometry" />
        </mxCell>
        <mxCell id="LEf2-nqMguErEL3u1rOa-72" value="Tháng" style="swimlane;whiteSpace=wrap;html=1;" parent="1" vertex="1">
          <mxGeometry x="3160" y="351" width="180" height="129" as="geometry" />
        </mxCell>
        <mxCell id="LEf2-nqMguErEL3u1rOa-73" value="- Tháng&lt;br&gt;- Ngày" style="text;html=1;align=center;verticalAlign=middle;resizable=0;points=[];autosize=1;strokeColor=none;fillColor=none;" parent="LEf2-nqMguErEL3u1rOa-72" vertex="1">
          <mxGeometry x="60" y="55" width="60" height="40" as="geometry" />
        </mxCell>
        <mxCell id="ioqxV5oBWN_LTfzM5Hr--35" style="edgeStyle=none;rounded=0;orthogonalLoop=1;jettySize=auto;html=1;entryX=0.5;entryY=0;entryDx=0;entryDy=0;" edge="1" parent="1" source="LEf2-nqMguErEL3u1rOa-74" target="ioqxV5oBWN_LTfzM5Hr--29">
          <mxGeometry relative="1" as="geometry" />
        </mxCell>
        <mxCell id="LEf2-nqMguErEL3u1rOa-74" value="Ngày" style="swimlane;whiteSpace=wrap;html=1;" parent="1" vertex="1">
          <mxGeometry x="3160" y="544" width="180" height="129" as="geometry" />
        </mxCell>
        <mxCell id="LEf2-nqMguErEL3u1rOa-75" value="- Ngày&lt;br&gt;- khung giờ" style="text;html=1;align=center;verticalAlign=middle;resizable=0;points=[];autosize=1;strokeColor=none;fillColor=none;" parent="LEf2-nqMguErEL3u1rOa-74" vertex="1">
          <mxGeometry x="45" y="38" width="80" height="40" as="geometry" />
        </mxCell>
        <mxCell id="LEf2-nqMguErEL3u1rOa-78" value="Trạng thái phòng học" style="swimlane;whiteSpace=wrap;html=1;" parent="1" vertex="1">
          <mxGeometry x="2820" y="940" width="180" height="120" as="geometry" />
        </mxCell>
        <mxCell id="LEf2-nqMguErEL3u1rOa-79" value="- Trạng thái&lt;br&gt;- Booking ID" style="text;html=1;align=center;verticalAlign=middle;resizable=0;points=[];autosize=1;strokeColor=none;fillColor=none;" parent="LEf2-nqMguErEL3u1rOa-78" vertex="1">
          <mxGeometry x="45" y="50" width="90" height="40" as="geometry" />
        </mxCell>
        <mxCell id="LEf2-nqMguErEL3u1rOa-80" value="" style="shape=flexArrow;endArrow=classic;html=1;rounded=0;entryX=0.5;entryY=0;entryDx=0;entryDy=0;" parent="1" target="LEf2-nqMguErEL3u1rOa-70" edge="1">
          <mxGeometry width="50" height="50" relative="1" as="geometry">
            <mxPoint x="2650" y="40" as="sourcePoint" />
            <mxPoint x="3090" y="300" as="targetPoint" />
          </mxGeometry>
        </mxCell>
        <mxCell id="LEf2-nqMguErEL3u1rOa-81" value="" style="shape=flexArrow;endArrow=classic;html=1;rounded=0;entryX=0.5;entryY=0;entryDx=0;entryDy=0;" parent="1" edge="1">
          <mxGeometry width="50" height="50" relative="1" as="geometry">
            <mxPoint x="3249.38" y="70" as="sourcePoint" />
            <mxPoint x="3249.38" y="190" as="targetPoint" />
          </mxGeometry>
        </mxCell>
        <mxCell id="ioqxV5oBWN_LTfzM5Hr--17" style="edgeStyle=orthogonalEdgeStyle;rounded=0;orthogonalLoop=1;jettySize=auto;html=1;entryX=0;entryY=0.5;entryDx=0;entryDy=0;" edge="1" parent="1" source="ioqxV5oBWN_LTfzM5Hr--13" target="LEf2-nqMguErEL3u1rOa-64">
          <mxGeometry relative="1" as="geometry" />
        </mxCell>
        <mxCell id="ioqxV5oBWN_LTfzM5Hr--20" style="edgeStyle=none;rounded=0;orthogonalLoop=1;jettySize=auto;html=1;entryX=0;entryY=0.25;entryDx=0;entryDy=0;" edge="1" parent="1" source="ioqxV5oBWN_LTfzM5Hr--13" target="LEf2-nqMguErEL3u1rOa-70">
          <mxGeometry relative="1" as="geometry" />
        </mxCell>
        <mxCell id="ioqxV5oBWN_LTfzM5Hr--13" value="User profile" style="swimlane;whiteSpace=wrap;html=1;" vertex="1" parent="1">
          <mxGeometry x="2070" y="130" width="160" height="150" as="geometry" />
        </mxCell>
        <mxCell id="ioqxV5oBWN_LTfzM5Hr--15" value="...&lt;br&gt;- MSSV&lt;br&gt;- Email&lt;br&gt;- SĐT" style="text;html=1;align=center;verticalAlign=middle;resizable=0;points=[];autosize=1;strokeColor=none;fillColor=none;" vertex="1" parent="1">
          <mxGeometry x="2120" y="168" width="60" height="70" as="geometry" />
        </mxCell>
        <mxCell id="ioqxV5oBWN_LTfzM5Hr--23" value="" style="endArrow=classic;startArrow=classic;html=1;rounded=0;exitX=1;exitY=0.5;exitDx=0;exitDy=0;entryX=0;entryY=0.5;entryDx=0;entryDy=0;edgeStyle=orthogonalEdgeStyle;" edge="1" parent="1" source="LEf2-nqMguErEL3u1rOa-64" target="LEf2-nqMguErEL3u1rOa-70">
          <mxGeometry width="50" height="50" relative="1" as="geometry">
            <mxPoint x="2480" y="490" as="sourcePoint" />
            <mxPoint x="2530" y="440" as="targetPoint" />
          </mxGeometry>
        </mxCell>
        <mxCell id="ioqxV5oBWN_LTfzM5Hr--24" value="" style="endArrow=classic;startArrow=classic;html=1;rounded=0;exitX=1;exitY=0.5;exitDx=0;exitDy=0;entryX=0;entryY=0.5;entryDx=0;entryDy=0;edgeStyle=orthogonalEdgeStyle;" edge="1" parent="1" source="LEf2-nqMguErEL3u1rOa-68" target="LEf2-nqMguErEL3u1rOa-70">
          <mxGeometry width="50" height="50" relative="1" as="geometry">
            <mxPoint x="2480" y="490" as="sourcePoint" />
            <mxPoint x="2530" y="440" as="targetPoint" />
          </mxGeometry>
        </mxCell>
        <mxCell id="ioqxV5oBWN_LTfzM5Hr--25" value="" style="endArrow=classic;startArrow=classic;html=1;rounded=0;exitX=1;exitY=0.5;exitDx=0;exitDy=0;entryX=0;entryY=0.5;entryDx=0;entryDy=0;edgeStyle=orthogonalEdgeStyle;" edge="1" parent="1" source="LEf2-nqMguErEL3u1rOa-66" target="LEf2-nqMguErEL3u1rOa-70">
          <mxGeometry width="50" height="50" relative="1" as="geometry">
            <mxPoint x="2480" y="590" as="sourcePoint" />
            <mxPoint x="2530" y="540" as="targetPoint" />
          </mxGeometry>
        </mxCell>
        <mxCell id="ioqxV5oBWN_LTfzM5Hr--26" value="" style="shape=flexArrow;endArrow=classic;html=1;rounded=0;entryX=0;entryY=0.5;entryDx=0;entryDy=0;" edge="1" parent="1" target="LEf2-nqMguErEL3u1rOa-68">
          <mxGeometry width="50" height="50" relative="1" as="geometry">
            <mxPoint x="2140" y="630" as="sourcePoint" />
            <mxPoint x="2330" y="540" as="targetPoint" />
          </mxGeometry>
        </mxCell>
        <mxCell id="ioqxV5oBWN_LTfzM5Hr--27" value="Người duyệt" style="shape=umlActor;verticalLabelPosition=bottom;verticalAlign=top;html=1;outlineConnect=0;" vertex="1" parent="1">
          <mxGeometry x="2110" y="600" width="30" height="60" as="geometry" />
        </mxCell>
        <mxCell id="ioqxV5oBWN_LTfzM5Hr--36" style="edgeStyle=none;rounded=0;orthogonalLoop=1;jettySize=auto;html=1;entryX=0.5;entryY=0;entryDx=0;entryDy=0;" edge="1" parent="1" source="ioqxV5oBWN_LTfzM5Hr--29" target="LEf2-nqMguErEL3u1rOa-62">
          <mxGeometry relative="1" as="geometry" />
        </mxCell>
        <mxCell id="ioqxV5oBWN_LTfzM5Hr--29" value="Địa điểm" style="swimlane;whiteSpace=wrap;html=1;" vertex="1" parent="1">
          <mxGeometry x="3160" y="720" width="180" height="150" as="geometry" />
        </mxCell>
        <mxCell id="ioqxV5oBWN_LTfzM5Hr--30" value="- TVB&lt;br&gt;- HACINCO&lt;br&gt;- HOA LAC" style="text;html=1;align=center;verticalAlign=middle;resizable=0;points=[];autosize=1;strokeColor=none;fillColor=none;" vertex="1" parent="ioqxV5oBWN_LTfzM5Hr--29">
          <mxGeometry x="45" y="55" width="90" height="60" as="geometry" />
        </mxCell>
        <mxCell id="ioqxV5oBWN_LTfzM5Hr--32" value="" style="endArrow=classic;startArrow=classic;html=1;rounded=0;entryX=0;entryY=0.5;entryDx=0;entryDy=0;exitX=0.5;exitY=1;exitDx=0;exitDy=0;edgeStyle=orthogonalEdgeStyle;" edge="1" parent="1" source="LEf2-nqMguErEL3u1rOa-70" target="LEf2-nqMguErEL3u1rOa-78">
          <mxGeometry width="50" height="50" relative="1" as="geometry">
            <mxPoint x="2670" y="960" as="sourcePoint" />
            <mxPoint x="2720" y="910" as="targetPoint" />
          </mxGeometry>
        </mxCell>
        <mxCell id="ioqxV5oBWN_LTfzM5Hr--38" value="&lt;span style=&quot;font-size: 48px;&quot;&gt;ERD&lt;/span&gt;" style="text;html=1;strokeColor=none;fillColor=none;align=center;verticalAlign=middle;whiteSpace=wrap;rounded=0;" vertex="1" parent="1">
          <mxGeometry x="2445" y="-250" width="500" height="170" as="geometry" />
        </mxCell>
      </root>
    </mxGraphModel>
  </diagram>
</mxfile>
